<svg xmlns="http://www.w3.org/2000/svg" enable-background="new 0 0 64 64" viewBox="0 0 64 64" id="user-reminder"><path d="M31.52,57.33H2.78c-0.79,0-1.43-0.64-1.43-1.43V5.74c0-0.79,0.64-1.43,1.43-1.43h54.7c0.79,0,1.43,0.64,1.43,1.43v25.08
					c0,0.79-0.64,1.43-1.43,1.43c-0.79,0-1.43-0.64-1.43-1.43V7.17H4.21v47.29h27.31c0.79,0,1.43,0.64,1.43,1.43
					C32.96,56.69,32.32,57.33,31.52,57.33z"></path><path d="M57.48,18H2.78c-0.79,0-1.43-0.64-1.43-1.43s0.64-1.43,1.43-1.43h54.7c0.79,0,1.43,0.64,1.43,1.43S58.27,18,57.48,18z"></path><g><path d="M13.43 11.83c-.79 0-1.43-.64-1.43-1.43V1.43c0-.79.64-1.43 1.43-1.43.79 0 1.43.64 1.43 1.43v8.96C14.86 11.18 14.22 11.83 13.43 11.83zM46.83 11.83c-.79 0-1.43-.64-1.43-1.43V1.43C45.4.64 46.04 0 46.83 0c.79 0 1.43.64 1.43 1.43v8.96C48.26 11.18 47.62 11.83 46.83 11.83z"></path></g><g><path d="M47.4,50.05c-5.91,0-10.71-4.81-10.71-10.71s4.81-10.71,10.71-10.71s10.71,4.81,10.71,10.71S53.31,50.05,47.4,50.05z
				 M47.4,31.5c-4.33,0-7.85,3.52-7.85,7.85c0,4.33,3.52,7.85,7.85,7.85s7.85-3.52,7.85-7.85C55.25,35.01,51.73,31.5,47.4,31.5z"></path><path d="M61.22,64c-0.79,0-1.43-0.64-1.43-1.43c0-6.9-5.61-12.52-12.52-12.52c-6.76,0-12.26,5.5-12.26,12.26v0.26
				c0,0.79-0.64,1.43-1.43,1.43s-1.43-0.64-1.43-1.43v-0.26c0-8.34,6.79-15.13,15.13-15.13c8.48,0,15.38,6.9,15.38,15.38
				C62.65,63.36,62.01,64,61.22,64z"></path></g></svg>